<svg xmlns="http://www.w3.org/2000/svg" width="60" height="60" viewBox="0 0 60 60" fill="none">
  <path d="M48 8H12C9.79 8 8 9.79 8 12V42C8 44.21 9.79 46 12 46H30V50H22C20.9 50 20 50.9 20 52C20 53.1 20.9 54 22 54H38C39.1 54 40 53.1 40 52C40 50.9 39.1 50 38 50H30V46H48C50.21 46 52 44.21 52 42V12C52 9.79 50.21 8 48 8ZM48 42H12V12H48V42Z" fill="#33CCFF"/>
  <path d="M16 16H24V24H16V16Z" fill="#33CCFF"/>
  <path d="M16 28H24V36H16V28Z" fill="#33CCFF"/>
  <path d="M28 16H44V20H28V16Z" fill="#33CCFF"/>
  <path d="M28 24H38V28H28V24Z" fill="#33CCFF"/>
  <path d="M28 32H42V36H28V32Z" fill="#33CCFF"/>
  
  <!-- Brain network nodes -->
  <circle cx="20" cy="20" r="3" fill="#33CCFF" opacity="0.8"/>
  <circle cx="20" cy="32" r="3" fill="#33CCFF" opacity="0.8"/>
  <circle cx="33" cy="18" r="2" fill="#33CCFF" opacity="0.8"/>
  <circle cx="33" cy="26" r="2" fill="#33CCFF" opacity="0.8"/>
  <circle cx="33" cy="34" r="2" fill="#33CCFF" opacity="0.8"/>
  
  <!-- Connection lines -->
  <path d="M22 20L31 18" stroke="#33CCFF" stroke-width="1" opacity="0.6"/>
  <path d="M22 20L31 26" stroke="#33CCFF" stroke-width="1" opacity="0.6"/>
  <path d="M22 32L31 26" stroke="#33CCFF" stroke-width="1" opacity="0.6"/>
  <path d="M22 32L31 34" stroke="#33CCFF" stroke-width="1" opacity="0.6"/>
  <path d="M33 20L33 24" stroke="#33CCFF" stroke-width="1" opacity="0.6"/>
  <path d="M33 28L33 32" stroke="#33CCFF" stroke-width="1" opacity="0.6"/>
</svg> 