<svg xmlns="http://www.w3.org/2000/svg" width="60" height="60" viewBox="0 0 60 60" fill="none">
  <path d="M30 10C22.26 10 16 16.26 16 24C16 31.74 22.26 38 30 38C37.74 38 44 31.74 44 24C44 16.26 37.74 10 30 10ZM30 34C24.48 34 20 29.52 20 24C20 18.48 24.48 14 30 14C35.52 14 40 18.48 40 24C40 29.52 35.52 34 30 34Z" fill="#00E0FF"/>
  <path d="M50 26C48.9 26 48 26.9 48 28V44C48 44.56 47.56 45 47 45H13C12.44 45 12 44.56 12 44V28C12 26.9 11.1 26 10 26C8.9 26 8 26.9 8 28V44C8 46.76 10.24 49 13 49H47C49.76 49 52 46.76 52 44V28C52 26.9 51.1 26 50 26Z" fill="#00E0FF"/>
  <path d="M24 30C22.9 30 22 30.9 22 32V42C22 43.1 22.9 44 24 44C25.1 44 26 43.1 26 42V32C26 30.9 25.1 30 24 30Z" fill="#00E0FF"/>
  <path d="M30 30C28.9 30 28 30.9 28 32V42C28 43.1 28.9 44 30 44C31.1 44 32 43.1 32 42V32C32 30.9 31.1 30 30 30Z" fill="#00E0FF"/>
  <path d="M36 30C34.9 30 34 30.9 34 32V42C34 43.1 34.9 44 36 44C37.1 44 38 43.1 38 42V32C38 30.9 37.1 30 36 30Z" fill="#00E0FF"/>
  <path d="M30 2C28.9 2 28 2.9 28 4V14C28 15.1 28.9 16 30 16C31.1 16 32 15.1 32 14V4C32 2.9 31.1 2 30 2Z" fill="#00E0FF"/>
</svg> 